<svg xmlns="http://www.w3.org/2000/svg" viewBox="0 0 256 256" role="img" aria-labelledby="title desc">
  <title id="title">ginput logo</title>
  <desc id="desc">A simple input controller icon with a small clown-like face.</desc>
  <rect width="256" height="256" rx="48" fill="#172033"/>
  <circle cx="78" cy="178" r="36" fill="#ff3150"/>
  <circle cx="178" cy="178" r="36" fill="#11c4d9"/>
  <ellipse cx="128" cy="120" rx="68" ry="74" fill="#f6f8ff"/>
  <path d="M70 101c4-29 25-53 53-63 6-2 12 3 11 10-4 27-23 40-49 49l-15 4z" fill="#ff9b1f"/>
  <path d="M186 101c-4-29-25-53-53-63-6-2-12 3-11 10 4 27 23 40 49 49l15 4z" fill="#ff9b1f"/>
  <circle cx="105" cy="94" r="9" fill="#172033"/>
  <circle cx="151" cy="94" r="9" fill="#172033"/>
  <circle cx="128" cy="106" r="13" fill="#ff3150"/>
  <path d="M105 149c14 14 32 14 46 0" fill="none" stroke="#172033" stroke-width="10" stroke-linecap="round"/>
  <rect x="82" y="135" width="92" height="48" rx="18" fill="#dce6f7" stroke="#172033" stroke-width="7"/>
  <path d="M105 146v24M93 158h24" stroke="#172033" stroke-width="8" stroke-linecap="round"/>
  <circle cx="147" cy="157" r="7" fill="#ff3150"/>
  <circle cx="164" cy="157" r="7" fill="#11c4d9"/>
</svg>
