<svg xmlns="http://www.w3.org/2000/svg" viewBox="0 0 256 256" role="img" aria-labelledby="title desc">
  <title id="title">glayout logo</title>
  <desc id="desc">A simple layout grid icon with a small clown-like face.</desc>
  <rect width="256" height="256" rx="48" fill="#172033"/>
  <circle cx="82" cy="178" r="38" fill="#ff3150"/>
  <circle cx="174" cy="178" r="38" fill="#11c4d9"/>
  <path d="M66 98c0-37 28-66 62-66s62 29 62 66v44c0 36-28 64-62 64s-62-28-62-64V98z" fill="#f6f8ff"/>
  <path d="M70 100c2-27 21-52 45-62 7-3 15 3 14 11-3 28-22 41-46 50l-13 1z" fill="#ff9b1f"/>
  <path d="M186 100c-2-27-21-52-45-62-7-3-15 3-14 11 3 28 22 41 46 50l13 1z" fill="#ff9b1f"/>
  <rect x="87" y="106" width="82" height="56" rx="8" fill="#dce6f7" stroke="#172033" stroke-width="6"/>
  <path d="M87 125h82M87 144h82M108 106v56M148 106v56" stroke="#172033" stroke-width="4" opacity=".55"/>
  <circle cx="105" cy="88" r="9" fill="#172033"/>
  <circle cx="151" cy="88" r="9" fill="#172033"/>
  <circle cx="128" cy="96" r="13" fill="#ff3150"/>
  <path d="M103 175c15 17 35 17 50 0" fill="none" stroke="#172033" stroke-width="11" stroke-linecap="round"/>
</svg>
